<svg width="373" height="92" viewBox="0 0 373 92" fill="none" xmlns="http://www.w3.org/2000/svg">
<g clip-path="url(#clip0_1453_1095)">
<path d="M257.619 82.9055H269.152V20.1035H264.357C260.642 20.1035 257.635 23.0434 257.635 26.6749L257.619 82.9094V82.9055Z" fill="#FCFCFC"/>
<path d="M220.132 42.5144V82.9059H231.666V44.2476H252.394V32.6572H229.945C224.524 32.6572 220.132 37.0709 220.132 42.5183V42.5144Z" fill="#FCFCFC"/>
<path d="M159.344 24.4072L139.023 68.1669L118.573 24.3954C117.348 21.7778 114.728 20.1035 111.85 20.1035H103.93L133.145 82.9055H144.905L174.01 20.1035H166.071C163.185 20.1035 160.561 21.7817 159.34 24.4111L159.344 24.4072Z" fill="#FCFCFC"/>
<path d="M189.905 44.0275C197.465 44.0275 203.589 50.1863 203.589 57.7796C203.589 65.3729 197.461 71.5316 189.905 71.5316C182.349 71.5316 176.22 65.3729 176.22 57.7796C176.22 50.1863 182.349 44.0275 189.905 44.0275ZM189.905 32.6572C176.118 32.6572 164.902 43.9293 164.902 57.7835C164.902 71.6377 176.118 82.9098 189.905 82.9098C203.691 82.9098 214.907 71.6377 214.907 57.7835C214.907 43.9293 203.691 32.6572 189.905 32.6572Z" fill="#FCFCFC"/>
<path d="M313.988 35.2821L274.647 82.9053H290.706L332.275 32.5859H319.705C317.496 32.5859 315.399 33.5764 313.988 35.2821Z" fill="#FCFCFC"/>
<path d="M354.708 35.3134L315.392 82.9051H331.438L372.98 32.6172H360.418C358.209 32.6172 356.116 33.6037 354.705 35.3134H354.708Z" fill="#FCFCFC"/>
<path d="M307.022 52.3199L292.947 35.2821C291.535 33.5724 289.438 32.5859 287.229 32.5859H274.659L298.528 61.4774L307.018 52.3199H307.022Z" fill="#FCFCFC"/>
<path d="M335.115 37.0469L327.089 46.7586L356.95 82.9054H373L335.115 37.0469Z" fill="#FCFCFC"/>
<path d="M19.4023 0C8.68624 0 0 8.72915 0 19.4981V92H41.7769C23.2076 92 8.15435 76.8724 8.15435 58.2114V16.4757H42.9502V92H48.7579V57.1266H83.5538L48.8518 92H91.5556V0H19.4023ZM66.107 51.3491C56.5251 51.3491 48.754 43.5436 48.754 33.9105C48.754 24.2773 56.5212 16.4718 66.107 16.4718C75.6927 16.4718 83.4599 24.2773 83.4599 33.9105C83.4599 43.5436 75.6927 51.3491 66.107 51.3491Z" fill="white"/>
</g>
<defs>
<clipPath id="clip0_1453_1095">
<rect width="373" height="92" fill="white"/>
</clipPath>
</defs>
</svg>
