<svg width="1989" height="465" viewBox="0 0 1989 465" fill="none" xmlns="http://www.w3.org/2000/svg">
<path d="M1135.53 464.014H1220.75V0H1185.32C1157.87 0 1135.65 21.7212 1135.65 48.5532L1135.53 464.043V464.014Z" fill="black"/>
<path d="M858.567 165.579V464.013H943.782V178.385H1096.93V92.749H931.068C891.018 92.749 858.567 125.36 858.567 165.608V165.579Z" fill="black"/>
<path d="M409.431 31.7977L259.286 355.118L108.188 31.7106C99.1431 12.3706 79.7826 0 58.5149 0H0L215.855 464.014H302.746L517.792 0H459.133C437.807 0 418.418 12.3997 409.402 31.8267L409.431 31.7977Z" fill="black"/>
<path d="M635.224 176.759C691.081 176.759 736.332 222.263 736.332 278.366C736.332 334.47 691.052 379.974 635.224 379.974C579.397 379.974 534.116 334.47 534.116 278.366C534.116 222.263 579.397 176.759 635.224 176.759ZM635.224 92.749C533.365 92.749 450.491 176.033 450.491 278.395C450.491 380.758 533.365 464.042 635.224 464.042C737.084 464.042 819.958 380.758 819.958 278.395C819.958 176.033 737.084 92.749 635.224 92.749Z" fill="black"/>
<path d="M1552.01 112.145L1261.35 464.011H1380L1687.13 92.2246H1594.26C1577.93 92.2246 1562.45 99.5424 1552.01 112.145Z" fill="black"/>
<path d="M1852.88 112.38L1562.39 464.013H1680.95L1987.89 92.459H1895.07C1878.75 92.459 1863.29 99.7478 1852.86 112.38H1852.88Z" fill="black"/>
<path d="M1500.55 238.029L1396.55 112.145C1386.12 99.5134 1370.63 92.2246 1354.31 92.2246H1261.44L1437.79 305.69L1500.52 238.029H1500.55Z" fill="black"/>
<path d="M1708.11 125.187L1648.82 196.942L1869.44 464.014H1988.03L1708.11 125.187Z" fill="black"/>
</svg>
