<svg width="975" height="285" viewBox="0 0 975 285" fill="none" xmlns="http://www.w3.org/2000/svg">
<g filter="url(#filter0_g_1547_1100)">
<path d="M551.366 247.363H589.944V37.2998H573.906C561.479 37.2998 551.419 47.1332 551.419 59.2803L551.366 247.377V247.363Z" fill="black"/>
<path d="M425.983 112.259V247.363H464.56V118.056H533.893V79.2881H458.804C440.673 79.2881 425.983 94.0513 425.983 112.272V112.259Z" fill="black"/>
<path d="M222.653 51.6949L154.681 198.065L86.2776 51.6555C82.183 42.9001 73.4184 37.2998 63.7903 37.2998H37.3L135.02 247.363H174.356L271.709 37.2998H245.154C235.5 37.2998 226.722 42.9132 222.64 51.7081L222.653 51.6949Z" fill="black"/>
<path d="M324.872 117.32C350.159 117.32 370.645 137.92 370.645 163.319C370.645 188.717 350.146 209.317 324.872 209.317C299.599 209.317 279.1 188.717 279.1 163.319C279.1 137.92 299.599 117.32 324.872 117.32ZM324.872 79.2881C278.759 79.2881 241.241 116.991 241.241 163.332C241.241 209.672 278.759 247.376 324.872 247.376C370.985 247.376 408.503 209.672 408.503 163.332C408.503 116.991 370.985 79.2881 324.872 79.2881Z" fill="black"/>
<path d="M739.913 88.071L608.325 247.364H662.039L801.083 79.0527H759.039C751.648 79.0527 744.636 82.3656 739.913 88.071Z" fill="black"/>
<path d="M876.121 88.1755L744.612 247.363H798.285L937.238 79.1572H895.22C887.829 79.1572 880.83 82.4569 876.108 88.1755H876.121Z" fill="black"/>
<path d="M716.614 145.06L669.533 88.071C664.811 82.3524 657.799 79.0527 650.408 79.0527H608.364L688.201 175.691L716.601 145.06H716.614Z" fill="black"/>
<path d="M810.578 93.9717L783.735 126.456L883.613 247.362H937.3L810.578 93.9717Z" fill="black"/>
</g>
<defs>
<filter id="filter0_g_1547_1100" x="4.95911e-05" y="-0.00019455" width="974.6" height="284.677" filterUnits="userSpaceOnUse" color-interpolation-filters="sRGB">
<feFlood flood-opacity="0" result="BackgroundImageFix"/>
<feBlend mode="normal" in="SourceGraphic" in2="BackgroundImageFix" result="shape"/>
<feTurbulence type="fractalNoise" baseFrequency="0.66666668653488159 0.66666668653488159" numOctaves="3" seed="4124" />
<feDisplacementMap in="shape" scale="74.599998474121094" xChannelSelector="R" yChannelSelector="G" result="displacedImage" width="100%" height="100%" />
<feMerge result="effect1_texture_1547_1100">
<feMergeNode in="displacedImage"/>
</feMerge>
</filter>
</defs>
</svg>
