<svg width="453" height="340" viewBox="0 0 453 340" fill="none" xmlns="http://www.w3.org/2000/svg">
<g filter="url(#filter0_g_1647_1514)">
<path d="M414.376 37.9999L332.658 301.172H288.432L230.92 121.356C229.342 116.988 227.886 111.649 226.552 105.34C225.824 108.373 225.096 111.225 224.368 113.894C223.64 116.563 222.851 119.051 222.002 121.356L163.944 301.172H119.536L37.9998 37.9999H78.9498C83.1964 37.9999 86.7151 39.0312 89.5058 41.0939C92.4178 43.0352 94.3591 45.7045 95.3298 49.1019L140.102 206.532C141.072 210.415 141.982 214.661 142.832 219.272C143.802 223.761 144.773 228.493 145.744 233.468C146.714 228.372 147.746 223.579 148.838 219.09C150.051 214.601 151.325 210.415 152.66 206.532L204.348 49.1019C205.318 46.3112 207.199 43.7632 209.99 41.4579C212.902 39.1525 216.42 37.9999 220.546 37.9999H234.924C239.17 37.9999 242.628 39.0312 245.298 41.0939C247.967 43.1565 249.969 45.8259 251.304 49.1019L302.81 206.532C305.358 214.055 307.663 222.73 309.726 232.558C311.303 222.973 313.062 214.297 315.004 206.532L359.776 49.1019C360.504 46.0685 362.324 43.4599 365.236 41.2759C368.269 39.0919 371.848 37.9999 375.974 37.9999H414.376Z" fill="black"/>
</g>
<defs>
<filter id="filter0_g_1647_1514" x="0" y="0" width="452.376" height="339.172" filterUnits="userSpaceOnUse" color-interpolation-filters="sRGB">
<feFlood flood-opacity="0" result="BackgroundImageFix"/>
<feBlend mode="normal" in="SourceGraphic" in2="BackgroundImageFix" result="shape"/>
<feTurbulence type="fractalNoise" baseFrequency="0.90909087657928467 0.90909087657928467" numOctaves="3" seed="4282" />
<feDisplacementMap in="shape" scale="76" xChannelSelector="R" yChannelSelector="G" result="displacedImage" width="100%" height="100%" />
<feMerge result="effect1_texture_1647_1514">
<feMergeNode in="displacedImage"/>
</feMerge>
</filter>
</defs>
</svg>
